<?xml version="1.0" encoding="UTF-8" standalone="no"?>
<svg width="22px" height="22px" viewBox="0 0 22 22" version="1.1" xmlns="http://www.w3.org/2000/svg" xmlns:xlink="http://www.w3.org/1999/xlink">
    <!-- Generator: Sketch 50.2 (55047) - http://www.bohemiancoding.com/sketch -->
    <title>close</title>
    <desc>Created with Sketch.</desc>
    <defs></defs>
    <g id="Symbols" stroke="none" stroke-width="1" fill="none" fill-rule="evenodd">
        <g id="close-modal" transform="translate(-17.000000, -16.000000)" fill="#FFFFFF" fill-rule="nonzero">
            <g id="close">
                <g transform="translate(17.000000, 16.000000)">
                    <path d="M12.215389,11.0000483 L21.7482791,1.46709206 C22.083907,1.13146331 22.083907,0.58730733 21.7482791,0.251721557 C21.4126511,-0.0838642169 20.8684965,-0.0839071856 20.5329115,0.251721557 L10.9999785,9.78467784 L1.46708848,0.251721557 C1.13146055,-0.0839071856 0.587305897,-0.0839071856 0.251720942,0.251721557 C-0.0838640121,0.587350299 -0.0839069807,1.13150628 0.251720942,1.46709206 L9.78461098,11.0000054 L0.251720942,20.5329617 C-0.0839069807,20.8685904 -0.0839069807,21.4127464 0.251720942,21.7483322 C0.419513419,21.916125 0.639469806,22 0.859426193,22 C1.07938258,22 1.299296,21.916125 1.46713144,21.7483322 L10.9999785,12.2154188 L20.5328686,21.7483322 C20.700661,21.916125 20.9206174,22 21.1405738,22 C21.3605302,22 21.5804436,21.916125 21.7482791,21.7483322 C22.083907,21.4127034 22.083907,20.8685474 21.7482791,20.5329617 L12.215389,11.0000483 Z" id="Shape"></path>
                </g>
            </g>
        </g>
    </g>
</svg>