<?xml version="1.0" encoding="UTF-8" standalone="no"?>
<svg width="17px" height="19px" viewBox="0 0 17 19" version="1.1" xmlns="http://www.w3.org/2000/svg" xmlns:xlink="http://www.w3.org/1999/xlink">
    <!-- Generator: Sketch 50.2 (55047) - http://www.bohemiancoding.com/sketch -->
    <title>bin</title>
    <desc>Created with Sketch.</desc>
    <defs></defs>
    <g id="Symbols" stroke="none" stroke-width="1" fill="none" fill-rule="evenodd">
        <g id="bin" transform="translate(-9.000000, -8.000000)" fill="#FFFFFF" fill-rule="nonzero">
            <g id="Shape">
                <g transform="translate(9.500000, 8.000000)">
                    <path d="M11.5,7 C11.2238281,7 11,7.21418962 11,7.4784689 L11,16.5215311 C11,16.7856235 11.2238281,17 11.5,17 C11.7761718,17 12,16.7856235 12,16.5215311 L12,7.4784689 C12,7.21418962 11.7761718,7 11.5,7 Z"></path>
                    <path d="M5.5,7 C5.2238281,7 5,7.21418962 5,7.4784689 L5,16.5215311 C5,16.7856235 5.2238281,17 5.5,17 C5.77617185,17 6,16.7856235 6,16.5215311 L6,7.4784689 C6,7.21418962 5.77617185,7 5.5,7 Z"></path>
                    <path d="M1.31032823,5.65648318 L1.31032823,16.6194453 C1.31032823,17.2674234 1.55668545,17.8759457 1.98704472,18.3125661 C2.41542159,18.7504033 3.01158097,18.9989571 3.63549377,19 L12.3645063,19 C12.9885993,18.9989571 13.5847586,18.7504033 14.0129553,18.3125661 C14.4433146,17.8759457 14.6896719,17.2674234 14.6896719,16.6194453 L14.6896719,5.65648318 C15.5451641,5.43747771 16.0995129,4.64036729 15.9850749,3.79371992 C15.8704566,2.94724641 15.1227344,2.31404248 14.2375062,2.31386867 L11.8753961,2.31386867 L11.8753961,1.7576643 C11.8780994,1.28993117 11.686348,0.840796133 11.3430338,0.510375981 C10.9997195,0.180129632 10.5333168,-0.00376544054 10.0483516,5.84645548e-05 L5.95164846,5.84645548e-05 C5.46668328,-0.00376544054 5.00028052,0.180129632 4.65696628,0.510375981 C4.31365205,0.840796133 4.12190068,1.28993117 4.12460395,1.7576643 L4.12460395,2.31386867 L1.7624938,2.31386867 C0.877265677,2.31404248 0.12954348,2.94724641 0.0149251346,3.79371992 C-0.0995129127,4.64036729 0.454835969,5.43747771 1.31032823,5.65648318 Z M12.3645063,18.110073 L3.63549377,18.110073 C2.84668199,18.110073 2.23304158,17.4565329 2.23304158,16.6194453 L2.23304158,5.69559129 L13.7669585,5.69559129 L13.7669585,16.6194453 C13.7669585,17.4565329 13.153318,18.110073 12.3645063,18.110073 Z M5.04731731,1.7576643 C5.04425358,1.52597042 5.13868752,1.30296722 5.30917325,1.13940838 C5.47947873,0.975849542 5.71123836,0.885987738 5.95164846,0.889985469 L10.0483516,0.889985469 C10.2887616,0.885987738 10.5205213,0.975849542 10.6908268,1.13940838 C10.8613125,1.30279342 10.9557465,1.52597042 10.9526828,1.7576643 L10.9526828,2.31386867 L5.04731731,2.31386867 L5.04731731,1.7576643 Z M1.7624938,3.20379568 L14.2375062,3.20379568 C14.6961596,3.20379568 15.0679483,3.5623737 15.0679483,4.00472998 C15.0679483,4.44708627 14.6961596,4.80566429 14.2375062,4.80566429 L1.7624938,4.80566429 C1.30384035,4.80566429 0.932051782,4.44708627 0.932051782,4.00472998 C0.932051782,3.5623737 1.30384035,3.20379568 1.7624938,3.20379568 Z"></path>
                    <path d="M8.5,7 C8.2238281,7 8,7.21418962 8,7.4784689 L8,16.5215311 C8,16.7856235 8.2238281,17 8.5,17 C8.77617185,17 9,16.7856235 9,16.5215311 L9,7.4784689 C9,7.21418962 8.77617185,7 8.5,7 Z"></path>
                </g>
            </g>
        </g>
    </g>
</svg>